<svg width="217" height="200" viewBox="0 0 217 200" fill="none" xmlns="http://www.w3.org/2000/svg">
<path d="M83.4615 181.818C83.4615 186.742 81.8097 191.004 78.506 194.602C75.2023 198.201 71.2901 200 66.7692 200C62.2484 200 58.3361 198.201 55.0325 194.602C51.7288 191.004 50.0769 186.742 50.0769 181.818C50.0769 176.894 51.7288 172.633 55.0325 169.034C58.3361 165.436 62.2484 163.636 66.7692 163.636C71.2901 163.636 75.2023 165.436 78.506 169.034C81.8097 172.633 83.4615 176.894 83.4615 181.818ZM200.308 181.818C200.308 186.742 198.656 191.004 195.352 194.602C192.048 198.201 188.136 200 183.615 200C179.095 200 175.182 198.201 171.879 194.602C168.575 191.004 166.923 186.742 166.923 181.818C166.923 176.894 168.575 172.633 171.879 169.034C175.182 165.436 179.095 163.636 183.615 163.636C188.136 163.636 192.048 165.436 195.352 169.034C198.656 172.633 200.308 176.894 200.308 181.818ZM217 27.2727V100C217 102.273 216.283 104.285 214.848 106.037C213.414 107.789 211.653 108.807 209.567 109.091L73.4201 126.42C74.5503 132.102 75.1154 135.417 75.1154 136.364C75.1154 137.879 74.0721 140.909 71.9856 145.455H191.962C194.222 145.455 196.178 146.354 197.83 148.153C199.482 149.953 200.308 152.083 200.308 154.545C200.308 157.008 199.482 159.138 197.83 160.937C196.178 162.737 194.222 163.636 191.962 163.636H58.4231C56.1627 163.636 54.2065 162.737 52.5547 160.937C50.9028 159.138 50.0769 157.008 50.0769 154.545C50.0769 153.504 50.4247 152.012 51.1202 150.071C51.8157 148.13 52.5112 146.425 53.2067 144.957C53.9022 143.49 54.8368 141.596 56.0105 139.276C57.1842 136.955 57.858 135.559 58.0319 135.085L34.9495 18.1818H8.34615C6.08574 18.1818 4.12961 17.2822 2.47776 15.483C0.825921 13.6837 0 11.553 0 9.09091C0 6.62879 0.825921 4.49811 2.47776 2.69886C4.12961 0.899621 6.08574 0 8.34615 0H41.7308C43.1218 0 44.3607 0.307765 45.4474 0.923295C46.5342 1.53883 47.3818 2.27273 47.9904 3.125C48.599 3.97727 49.1641 5.13731 49.6857 6.60511C50.2073 8.07292 50.5551 9.30398 50.729 10.2983C50.9028 11.2926 51.1419 12.6894 51.4462 14.4886C51.7505 16.2879 51.9461 17.5189 52.0331 18.1818H208.654C210.914 18.1818 212.87 19.0814 214.522 20.8807C216.174 22.6799 217 24.8106 217 27.2727Z" fill="#592202"/>
</svg>
