<svg width="371" height="282" viewBox="0 0 371 282" fill="none" xmlns="http://www.w3.org/2000/svg">
<mask id="path-1-inside-1_228_379" fill="white">
<path d="M302.213 55.5344C305.043 52.602 309.019 49.1115 311.509 47.0391L344.852 44.8321L319.149 69.4403C322.138 70.5123 324.976 71.4881 327.264 72.2499C350.867 73.7302 334.979 73.5011 339.687 76.3867C343.454 78.6952 336.659 79.6625 332.79 79.8575L330.323 87.0218C329.021 90.803 328.678 91.798 321.37 89.3647C318.569 89.6149 311.797 91.1457 307.119 95.267C305.748 99.2472 298.457 99.1302 294.377 97.7299C295.786 98.226 297.156 98.697 298.457 99.1302C303.195 100.707 307.023 101.783 308.514 101.74C309.064 101.58 309.248 101.545 308.991 101.658C306.524 108.822 302.656 108.422 295.196 108.6C292.055 108.674 291.721 109.055 291.375 109.232C292.008 111.96 292.671 115.933 292.044 117.754C291.084 120.54 286.288 120.274 257.191 138.536C251.436 141.056 246.275 137.119 244.768 134.399C245.532 132.879 250.872 132.734 253.447 132.852C254.607 133.342 255.11 131.732 251.195 123.886C250.232 123.658 249.357 123.444 248.606 123.254C248.822 122.383 249.082 121.425 249.384 120.406C247.855 117.565 245.893 114.128 243.4 109.986C245.045 105.21 245.639 105.851 272.406 94.3558C272.676 94.3239 272.939 94.2922 273.193 94.2608C269.621 89.9431 268.552 85.0962 273.913 89.9777L275.832 89.3831C274.912 88.0636 273.582 86.3947 271.987 84.6196C271.532 84.2591 271.071 83.7675 270.58 83.1001C266.76 86.4914 279.179 74.5083 280.546 80.6551C283.469 80.6316 287.409 80.526 292.139 79.6311L299.447 82.0645L306.263 79.6596C305.517 77.3247 304.125 74.02 303.559 70.124C299.448 67.8679 290.222 63.9085 284.879 58.1363C281.033 53.982 292.063 54.0916 302.213 55.5344Z"/>
</mask>
<path d="M298.855 60.1283L303.868 60.2603L303.868 60.2603L298.855 60.1283ZM302.213 55.5344L302.962 50.6L300.405 50.2365L298.607 52.0991L302.213 55.5344ZM312.741 57.6535L311.309 62.442L311.309 62.442L312.741 57.6535ZM306.263 79.6596L304.619 74.9639L300.008 76.5908L301.481 81.203L306.263 79.6596ZM299.447 82.0645L301.075 77.337L299.541 76.8262L297.989 77.3071L299.447 82.0645ZM273.913 89.9777L275.826 85.3546L270.509 93.6655L273.913 89.9777ZM273.193 94.2608L272.616 89.3143L263.51 90.4358L269.309 97.4451L273.193 94.2608ZM279.028 98.7793L277.236 103.449L277.236 103.449L279.028 98.7793ZM308.514 101.74L308.409 96.7577L307.762 96.7764L307.141 96.9572L308.514 101.74ZM291.375 109.232L293.644 113.659L297.143 111.867L296.262 108.074L291.375 109.232ZM282.544 107.492L281.353 112.344L281.353 112.344L282.544 107.492ZM264.275 101.409L263.642 96.4695L256.074 97.4874L259.958 103.981L264.275 101.409ZM270.895 127.127L270.687 122.149L270.687 122.149L270.895 127.127ZM251.195 123.886L246.698 126.13L247.73 128.199L249.995 128.735L251.195 123.886ZM249.384 120.406L244.574 119.033L243.993 120.993L244.958 122.785L249.384 120.406ZM265.234 98.6227L264.816 103.593L264.816 103.593L265.234 98.6227ZM294.331 97.7138L292.642 102.421L292.642 102.421L294.331 97.7138ZM294.377 97.7299L296.105 93.0371L296.104 93.0368L294.377 97.7299ZM271.987 84.6196L268.234 87.9563L268.513 88.267L268.841 88.5267L271.987 84.6196ZM275.832 89.3831L274.374 84.6257L267.808 86.6605L271.702 92.2445L275.832 89.3831ZM292.503 90.4002L292.943 95.3618L308.301 93.8954L295.087 86.1076L292.503 90.4002ZM280.546 80.6551L285.444 79.5422L284.576 75.6384L280.546 75.6708L280.546 80.6551ZM319.149 69.4403L322.613 73.0164L328.424 67.4536L320.885 64.7501L319.149 69.4403ZM313.355 77.1572L314.999 81.853L314.999 81.853L313.355 77.1572ZM279.385 88.282L280.842 93.0395L280.842 93.0394L279.385 88.282ZM303.868 60.2603C303.85 60.7734 303.741 61.1446 303.684 61.3146C303.622 61.4979 303.567 61.602 303.562 61.6122C303.556 61.6226 303.623 61.4994 303.832 61.221C304.245 60.6709 304.914 59.9072 305.819 58.9696L298.607 52.0991C297.581 53.1616 296.586 54.268 295.81 55.3014C295.425 55.8148 295.016 56.4118 294.68 57.0511C294.4 57.5841 293.889 58.6566 293.843 59.9963L303.868 60.2603ZM341.979 40.7696C338.448 43.25 332.649 46.8543 326.87 49.5342C323.978 50.8753 321.231 51.9187 318.864 52.5009C316.381 53.1114 314.884 53.07 314.172 52.8649L311.309 62.442C314.529 63.3689 318.084 62.9428 321.199 62.1768C324.429 61.3823 327.826 60.0571 331.051 58.562C337.504 55.5695 343.829 51.6312 347.725 48.8946L341.979 40.7696ZM314.172 52.8649C311.121 51.9865 307.056 51.1819 302.962 50.6L301.463 60.4687C305.275 61.0106 308.85 61.7341 311.309 62.442L314.172 52.8649ZM301.481 81.203C301.665 81.7777 301.729 82.0604 301.746 82.1694L311.656 80.5464C311.52 79.6803 311.271 78.8257 311.044 78.1163L301.481 81.203ZM301.746 82.1694C301.76 82.2561 301.708 82.0185 301.77 81.5975C301.841 81.1224 302.077 80.324 302.767 79.5805C303.455 78.8397 304.222 78.5538 304.653 78.4537C305.036 78.3647 305.221 78.4024 305.051 78.389L304.174 88.3265C305.416 88.4247 308.12 88.4563 310.114 86.3082C312.116 84.1519 311.808 81.5096 311.656 80.5464L301.746 82.1694ZM305.051 78.389C304.566 78.3506 303.395 78.1095 301.075 77.337L297.819 86.792C300.224 87.593 302.384 88.1849 304.174 88.3265L305.051 78.389ZM269.309 97.4451C271.157 99.6788 273.882 102.201 277.236 103.449L280.82 94.1096C279.761 93.7156 278.374 92.6427 277.078 91.0766L269.309 97.4451ZM307 97.0992C307.424 96.9138 307.776 96.8373 307.975 96.8033C308.184 96.7675 308.338 96.7598 308.409 96.7577L308.619 106.722C309.071 106.709 309.991 106.651 310.982 106.217L307 97.0992ZM289.106 104.805C289.244 104.735 289.477 104.626 289.779 104.531C290.085 104.436 290.373 104.383 290.627 104.358C290.866 104.334 291.048 104.338 291.144 104.343C291.239 104.347 291.286 104.354 291.262 104.351C291.199 104.343 291.018 104.314 290.619 104.231C290.234 104.151 289.72 104.038 289.02 103.877L286.691 113.592C288.054 113.904 289.092 114.131 289.851 114.232C290.244 114.284 290.851 114.346 291.542 114.278C292.401 114.193 293.097 113.939 293.644 113.659L289.106 104.805ZM289.02 103.877C287.805 103.599 286.123 103.202 283.735 102.641L281.353 112.344C283.716 112.899 285.441 113.306 286.691 113.592L289.02 103.877ZM283.735 102.641C282.913 102.448 282.172 102.254 281.503 102.062L278.645 111.64C279.482 111.881 280.383 112.116 281.353 112.344L283.735 102.641ZM281.503 102.062C277.003 100.769 275.604 99.5393 274.046 98.4712C273.043 97.7831 271.681 96.9301 269.715 96.5055C267.874 96.108 265.894 96.1666 263.642 96.4695L264.908 106.348C266.644 106.115 267.302 106.203 267.509 106.248C267.59 106.265 267.685 106.267 268.304 106.691C269.991 107.848 272.503 109.876 278.645 111.64L281.503 102.062ZM270.687 122.149C269.336 122.216 266.471 121.88 262.752 121.216C259.209 120.582 255.382 119.744 252.395 119.037L249.995 128.735C253.094 129.47 257.114 130.351 260.899 131.028C264.506 131.672 268.447 132.237 271.104 132.105L270.687 122.149ZM254.195 121.778C255.448 117.547 257.408 112.425 259.793 108.546C260.99 106.598 262.143 105.215 263.157 104.391C264.14 103.593 264.65 103.581 264.816 103.593L265.652 93.6524C262.114 93.3867 259.12 94.8473 256.848 96.6922C254.607 98.5118 252.755 100.942 251.244 103.399C248.215 108.328 245.954 114.376 244.574 119.033L254.195 121.778ZM264.816 103.593C269.461 103.942 273.729 105.048 277.169 105.972C278.759 106.399 280.476 106.874 281.794 107.099C282.409 107.203 283.428 107.348 284.501 107.211C285.533 107.08 288.204 106.413 289.207 103.5L279.719 100.34C280.585 97.8252 282.875 97.3781 283.305 97.3233C283.776 97.2634 283.971 97.3415 283.565 97.2724C282.838 97.1488 281.718 96.846 279.859 96.3467C276.402 95.4179 271.33 94.0788 265.652 93.6524L264.816 103.593ZM277.236 103.449C281.137 104.901 284.296 105.548 286.987 105.413L286.564 95.4566C285.808 95.4945 284.112 95.3345 280.82 94.1096L277.236 103.449ZM286.987 105.413C287.135 105.406 287.281 105.396 287.426 105.384L286.668 95.4498C286.637 95.4524 286.602 95.4548 286.564 95.4566L286.987 105.413ZM287.426 105.384C289.5 105.211 291.138 104.571 292.469 103.716L287.072 95.3568C287.039 95.3778 287.024 95.3846 287.002 95.3921C286.978 95.4004 286.879 95.4322 286.669 95.4497L287.426 105.384ZM292.469 103.716C293.242 103.219 293.838 102.694 294.181 102.39C294.382 102.212 294.464 102.138 294.555 102.061C294.631 101.998 294.624 102.009 294.565 102.048C294.499 102.092 294.356 102.18 294.145 102.264C293.926 102.352 293.678 102.42 293.414 102.451C292.875 102.515 292.568 102.395 292.642 102.421L296.02 93.007C294.916 92.6234 293.66 92.3921 292.308 92.552C290.918 92.7164 289.83 93.2468 289.031 93.7781C288.351 94.2306 287.746 94.7906 287.542 94.9708C287.24 95.2378 287.14 95.313 287.072 95.3568L292.469 103.716ZM292.642 102.421C292.643 102.421 292.645 102.422 292.649 102.423L296.104 93.0368C296.078 93.0273 296.049 93.0173 296.02 93.0069L292.642 102.421ZM292.648 102.423C294.409 103.051 295.79 103.526 296.887 103.877L300.027 94.3837C299.087 94.0833 297.828 93.6517 296.105 93.0371L292.648 102.423ZM296.04 93.0141C294.934 92.6245 293.801 92.2186 292.657 91.8027L289.144 101.168C290.316 101.594 291.48 102.012 292.622 102.413L296.04 93.0141ZM292.657 91.8027C289.4 90.6188 286.058 89.3578 282.974 88.1675L279.277 97.464C282.407 98.6724 285.812 99.9574 289.144 101.168L292.657 91.8027ZM282.974 88.1675C281.521 87.6067 280.127 87.0623 278.828 86.5497L275.062 95.8192C276.383 96.3406 277.8 96.8941 279.277 97.464L282.974 88.1675ZM278.828 86.5497C277.755 86.1263 276.748 85.725 275.826 85.3546L272.001 94.6007C272.943 94.9794 273.97 95.3885 275.062 95.8192L278.828 86.5497ZM289.207 103.5C288.881 104.448 288.338 105 288.131 105.195C288.004 105.314 287.899 105.394 287.838 105.438C287.776 105.483 287.735 105.507 287.726 105.513C287.713 105.521 287.76 105.492 287.893 105.431C288.02 105.373 288.19 105.302 288.408 105.218L284.86 95.9229C284.182 96.183 283.367 96.5287 282.621 96.9726C282.246 97.1959 281.757 97.5209 281.28 97.9685C280.832 98.3888 280.123 99.1669 279.719 100.34L289.207 103.5ZM288.408 105.218C288.508 105.18 288.614 105.14 288.728 105.099L285.367 95.7342C285.198 95.7953 285.028 95.8582 284.86 95.9229L288.408 105.218ZM288.728 105.099C289.425 104.847 290.263 104.586 291.195 104.304L288.346 94.7688C287.408 95.0525 286.341 95.3818 285.366 95.7342L288.728 105.099ZM291.195 104.304C292.276 103.977 293.607 103.588 294.615 103.229C295.098 103.057 295.763 102.805 296.376 102.47C296.665 102.312 297.199 102.001 297.726 101.5C298.148 101.099 299.395 99.7959 299.392 97.6828L289.361 97.777C289.36 96.7654 289.673 95.9517 289.983 95.4029C290.282 94.8744 290.617 94.5187 290.825 94.3205C291.22 93.9455 291.56 93.7644 291.601 93.7419C291.719 93.6774 291.675 93.7141 291.301 93.847C290.595 94.0983 289.623 94.3824 288.346 94.7688L291.195 104.304ZM266.928 86.5457C267.381 87.0207 267.817 87.4927 268.234 87.9563L275.74 81.2829C275.258 80.7467 274.755 80.2021 274.232 79.6545L266.928 86.5457ZM271.702 92.2445C272.14 92.872 272.365 93.2616 272.446 93.424L281.444 88.9449C281.055 88.1645 280.524 87.3273 279.962 86.5216L271.702 92.2445ZM272.446 93.424C272.477 93.4867 272.439 93.4215 272.386 93.258C272.362 93.183 272.161 92.5979 272.214 91.7589C272.274 90.7936 272.8 88.7258 275.029 87.6905C276.718 86.9058 278.162 87.3637 278.38 87.4311C279.027 87.6312 279.26 87.8897 278.806 87.5519C278.499 87.3232 278.014 86.9237 277.318 86.2898L270.509 93.6655C271.334 94.4164 272.083 95.0509 272.749 95.5464C273.267 95.9329 274.21 96.6059 275.329 96.9521C275.784 97.0925 277.405 97.5564 279.215 96.7157C281.564 95.6245 282.154 93.4387 282.225 92.2987C282.289 91.2849 282.046 90.4683 281.929 90.1102C281.783 89.6636 281.603 89.2635 281.444 88.9449L272.446 93.424ZM295.087 86.1076C291.706 84.1146 288.799 82.7925 286.24 81.9376L282.974 91.3894C284.752 91.9834 287.022 92.9856 289.919 94.6929L295.087 86.1076ZM286.24 81.9376C284.173 81.2467 282.362 80.8706 280.744 80.6835L279.504 90.5856C280.421 90.6917 281.554 90.9148 282.974 91.3894L286.24 81.9376ZM280.744 80.6835C279.229 80.5081 277.959 80.5078 276.945 80.5354L277.139 90.5006C277.893 90.4801 278.642 90.4857 279.504 90.5856L280.744 80.6835ZM276.945 80.5354C276.645 80.5436 276.36 80.5545 276.118 80.5636C275.866 80.5731 275.665 80.5804 275.478 80.5846C275.097 80.5933 274.92 80.5843 274.83 80.5749C274.765 80.5681 274.825 80.5685 274.94 80.6125C274.993 80.6332 275.042 80.6568 275.082 80.6797C275.121 80.7021 275.138 80.7163 275.133 80.7124L268.841 88.5267C272.076 91.0902 275.787 90.5374 277.139 90.5006L276.945 80.5354ZM283.72 91.0483C283.872 90.6074 284.014 90.1787 284.148 89.7618L274.59 86.812C274.481 87.1548 274.362 87.5136 274.232 87.8891L283.72 91.0483ZM284.148 89.7619C284.15 89.7554 284.152 89.749 284.154 89.7434L274.595 86.7967C274.593 86.8024 274.592 86.8072 274.59 86.8118L284.148 89.7619ZM284.154 89.7433C284.492 88.6838 284.774 87.6937 284.999 86.7697L275.25 84.4994C275.089 85.1606 274.874 85.9229 274.595 86.7968L284.154 89.7433ZM284.999 86.7697C285.618 84.2263 285.929 81.7257 285.444 79.5422L275.648 81.7681C275.628 81.6786 275.674 81.8244 275.635 82.3282C275.596 82.8163 275.488 83.5236 275.25 84.4994L284.999 86.7697ZM320.885 64.7501C314.635 62.5088 308.027 59.9514 304.408 58.1103L299.779 66.9915C304.033 69.1555 311.201 71.9027 317.413 74.1304L320.885 64.7501ZM304.408 58.1103C303.479 57.6376 302.944 57.3095 302.706 57.1356C302.575 57.0394 302.71 57.1171 302.926 57.3726C303.04 57.5087 303.259 57.791 303.458 58.2162C303.659 58.6454 303.899 59.3529 303.868 60.2603L293.843 59.9963C293.773 61.9909 294.819 63.3414 295.214 63.8093C295.719 64.4096 296.288 64.8667 296.717 65.1803C297.599 65.8258 298.692 66.4383 299.779 66.9915L304.408 58.1103ZM314.999 81.853L328.908 76.9457L325.62 67.5542L311.712 72.4615L314.999 81.853ZM297.87 65.2724C299.318 67.5082 300.354 68.9561 301.225 70.0104C302.159 71.1406 302.856 71.7557 303.379 72.2333C303.997 72.7971 304.934 73.5888 308.292 78.6109L316.66 73.0475C313.07 67.6778 311.629 66.173 310.198 64.867C309.697 64.4096 309.453 64.1965 308.998 63.6465C308.481 63.0205 307.682 61.9363 306.318 59.8294L297.87 65.2724ZM308.292 78.6109C308.561 79.0147 308.847 79.4453 309.148 79.9047L317.562 74.4098C317.247 73.9293 316.947 73.4758 316.66 73.0475L308.292 78.6109ZM277.29 94.1404L280.827 93.0443L277.911 83.5295L274.374 84.6257L277.29 94.1404ZM280.826 93.0443L280.842 93.0395L277.927 83.5245L277.912 83.5294L280.826 93.0443ZM280.842 93.0394L286.065 91.4209L283.15 81.9061L277.927 83.5246L280.842 93.0394ZM286.065 91.4209L300.904 86.8219L297.989 77.3071L283.15 81.9061L286.065 91.4209ZM280.546 75.6708C279.228 75.6814 277.772 75.6719 276.657 75.7438C276.079 75.7811 275.363 75.8512 274.642 76.0221C273.981 76.1787 272.821 76.5296 271.762 77.4483C270.487 78.5538 269.806 80.0888 269.771 81.6829C269.742 83.0113 270.165 84.0987 270.469 84.7472C271.075 86.0411 272.095 87.393 273.128 88.6661L280.956 82.37C280.479 81.7822 280.134 81.3283 279.89 80.9795C279.633 80.6129 279.562 80.4654 279.569 80.48C279.576 80.4961 279.63 80.6119 279.684 80.8103C279.737 81.0069 279.81 81.3573 279.8 81.819C279.789 82.3008 279.688 82.8859 279.406 83.4931C279.123 84.1046 278.728 84.5845 278.323 84.9358C277.594 85.5683 276.919 85.712 276.894 85.7179C276.809 85.7382 276.878 85.7142 277.226 85.6918C277.964 85.6442 278.93 85.6524 280.546 85.6394L280.546 75.6708ZM273.128 88.6661C273.816 89.5141 274.634 90.4737 275.571 91.5493L283.178 84.9909C282.272 83.9501 281.539 83.0887 280.956 82.37L273.128 88.6661ZM275.571 91.5499C275.576 91.5554 275.575 91.5539 275.581 91.5615L283.188 85.0025C283.188 85.0021 283.18 84.9926 283.178 84.9903L275.571 91.5499ZM307.907 84.3554L308.045 84.3066L304.757 74.9152L304.619 74.9639L307.907 84.3554ZM308.045 84.3066L311.41 83.1194L308.122 73.7279L304.757 74.9152L308.045 84.3066ZM311.41 83.1194L313.365 82.4297L310.077 73.0383L308.122 73.7279L311.41 83.1194ZM313.365 82.4297L314.999 81.853L311.712 72.4615L310.077 73.0383L313.365 82.4297ZM325.218 82.9766C323.433 81.65 322.239 80.0587 320.449 77.966C319.033 76.3113 316.444 73.2752 312.362 72.7854L311.08 82.6826C310.804 82.6495 311.093 82.4821 312.784 84.4583C314.099 85.9965 316.237 88.7982 319.168 90.9765L325.218 82.9766ZM312.362 72.7854C311.502 72.6823 310.636 72.6983 309.771 72.8251L311.155 82.6871C311.168 82.6852 311.166 82.6864 311.15 82.6866C311.133 82.6869 311.109 82.6861 311.08 82.6826L312.362 72.7854ZM309.771 72.8251C307.556 73.1497 305.486 74.1775 303.534 75.5441L309.268 83.6777C310.491 82.8208 311.068 82.6999 311.155 82.6871L309.771 72.8251ZM292.064 85.4386C287.326 85.891 284.741 86.3153 282.919 86.8383C281.943 87.1184 281.255 87.4069 280.724 87.6352C280.236 87.8454 279.997 87.9509 279.604 88.0785L282.647 97.5529C283.56 97.2567 284.224 96.9604 284.647 96.7783C285.028 96.6143 285.261 96.5199 285.63 96.4141C286.497 96.1653 288.294 95.8057 292.943 95.3618L292.064 85.4386ZM279.604 88.0785C278.775 88.3475 277.061 88.7669 272.616 89.3143L273.77 99.2074C278.389 98.6385 280.876 98.1274 282.647 97.5529L279.604 88.0785ZM244.958 122.785C245.625 124.024 246.201 125.135 246.698 126.13L255.692 121.643C255.144 120.545 254.519 119.343 253.811 118.026L244.958 122.785ZM292.614 112.321C300.949 109.378 307.98 107.077 309.887 106.523L307.141 96.9572C304.942 97.597 297.682 99.9787 289.323 102.931L292.614 112.321ZM296.262 108.074C296.106 107.402 295.949 106.786 295.805 106.267L286.132 108.986C286.236 109.362 286.36 109.842 286.487 110.391L296.262 108.074ZM261.481 124.727C261.322 125.04 261.163 125.245 261.082 125.342C261.038 125.396 261.002 125.434 260.981 125.456C260.959 125.478 260.947 125.49 260.947 125.49C260.946 125.49 260.954 125.483 260.973 125.467C260.992 125.451 261.019 125.43 261.055 125.402C261.128 125.346 261.229 125.273 261.362 125.183C261.923 124.803 262.798 124.299 264.016 123.681C266.432 122.454 269.755 121.001 273.599 119.445L269.879 110.217C265.94 111.812 262.309 113.39 259.511 114.81C258.122 115.515 256.826 116.238 255.765 116.955C255.234 117.314 254.679 117.728 254.172 118.193C253.712 118.615 253.033 119.312 252.54 120.281L261.481 124.727ZM273.599 119.445C278.523 117.452 284.151 115.35 289.525 113.421L286.186 104.048C280.742 106.002 274.976 108.154 269.879 110.217L273.599 119.445ZM289.525 113.421C290.567 113.047 291.6 112.68 292.614 112.321L289.323 102.931C288.293 103.295 287.245 103.668 286.186 104.048L289.525 113.421ZM259.958 103.981C263.264 109.508 265.625 113.765 267.224 117.037L276.254 112.625C274.48 108.992 271.958 104.465 268.591 98.8362L259.958 103.981ZM267.224 117.037C268.378 119.401 269.076 121.133 269.453 122.379C269.854 123.704 269.765 124.076 269.791 123.904C269.814 123.757 269.895 123.426 270.149 123.043C270.409 122.65 270.731 122.383 270.998 122.226C271.403 121.988 271.499 122.109 270.687 122.149L271.104 132.105C272.443 132.039 274.326 131.81 276.051 130.797C278.101 129.593 279.352 127.633 279.706 125.337C280.011 123.358 279.629 121.316 279.061 119.438C278.47 117.482 277.523 115.222 276.254 112.625L267.224 117.037ZM275.203 118.407L283.539 110.427L276.61 103.275L268.274 111.255L275.203 118.407ZM283.539 110.427L290.098 104.147L283.169 96.9945L276.61 103.275L283.539 110.427ZM290.098 104.147L290.24 104.011L283.311 96.8587L283.169 96.9945L290.098 104.147ZM290.24 104.011L294.365 100.062L287.436 92.9094L283.311 96.8587L290.24 104.011ZM294.365 100.062L308.077 86.9339L301.148 79.7816L287.436 92.9094L294.365 100.062ZM308.077 86.9339L310.166 84.934L303.237 77.7817L301.148 79.7816L308.077 86.9339ZM310.166 84.934L313.23 81.9998L306.301 74.8475L303.237 77.7817L310.166 84.934ZM313.23 81.9998L313.928 81.3322L306.999 74.18L306.301 74.8475L313.23 81.9998ZM313.928 81.3322L315.94 79.4053L309.011 72.253L306.999 74.18L313.928 81.3322ZM315.94 79.4053L322.613 73.0164L315.685 65.8641L309.011 72.253L315.94 79.4053ZM302.213 55.5344L300.714 65.4031L305.829 66.1302L309.425 62.4049L302.213 55.5344ZM311.509 47.0391L310.923 37.0922L307.637 37.3097L305.104 39.4186L311.509 47.0391ZM344.852 44.8321L351.781 51.9844L371.525 33.081L344.266 34.8852L344.852 44.8321ZM284.879 58.1363L292.286 51.3547L292.286 51.3547L284.879 58.1363ZM303.559 70.124L313.487 68.6192L312.779 63.7576L308.463 61.3883L303.559 70.124ZM306.263 79.6596L309.551 89.0511L318.773 85.7973L315.826 76.573L306.263 79.6596ZM299.447 82.0645L296.191 91.5196L299.464 92.6097L302.734 91.456L299.447 82.0645ZM273.913 89.9777L267.105 97.3533L271.327 101.197L276.829 99.4924L273.913 89.9777ZM273.193 94.2608L274.347 104.154L292.56 101.911L280.962 87.8924L273.193 94.2608ZM308.991 101.658L305.009 92.5405L300.942 94.3215L299.503 98.4986L308.991 101.658ZM308.514 101.74L308.724 111.705L310.016 111.667L311.259 111.306L308.514 101.74ZM298.457 99.1302L301.712 89.6749L301.712 89.6749L298.457 99.1302ZM295.196 108.6L295.356 118.566L295.356 118.566L295.196 108.6ZM291.375 109.232L286.837 100.379L279.838 103.963L281.6 111.549L291.375 109.232ZM251.195 123.886L260.188 119.399L258.123 115.26L253.595 114.188L251.195 123.886ZM248.606 123.254L238.868 120.941L236.495 130.504L246.064 132.918L248.606 123.254ZM249.384 120.406L259.005 123.15L260.167 119.23L258.237 115.647L249.384 120.406ZM294.377 97.7299L297.719 88.3041L290.959 107.13L294.377 97.7299ZM270.58 83.1001L278.694 77.1741L272.201 68.3471L263.931 75.6898L270.58 83.1001ZM271.987 84.6196L279.493 77.9462L278.935 77.3247L278.279 76.8053L271.987 84.6196ZM275.832 89.3831L278.747 98.8978L291.879 94.8281L284.092 83.6601L275.832 89.3831ZM280.546 80.6551L270.75 82.8811L272.486 90.6885L280.546 90.6237L280.546 80.6551ZM327.264 72.2499L324.008 81.705L325.246 82.1172L326.551 82.1991L327.264 72.2499ZM319.149 69.4403L312.22 62.288L300.6 73.4136L315.677 78.8205L319.149 69.4403ZM321.37 89.3647L324.626 79.9096L322.643 79.2491L320.553 79.4358L321.37 89.3647ZM332.79 79.8575L332.363 69.9015L325.524 70.2463L323.302 76.6983L332.79 79.8575ZM339.687 76.3867L334.372 84.8836L334.372 84.8836L339.687 76.3867ZM292.139 79.6311L295.395 70.1761L292.917 69.351L290.34 69.8386L292.139 79.6311ZM307.119 95.267L300.499 87.8311L298.496 89.5954L297.631 92.1077L307.119 95.267ZM272.406 94.3558L271.301 84.4568L269.841 84.6294L268.49 85.2098L272.406 94.3558ZM243.4 109.986L233.912 106.827L232.404 111.206L234.78 115.154L243.4 109.986ZM253.447 132.852L257.431 123.672L255.783 122.976L253.989 122.894L253.447 132.852ZM244.768 134.399L235.801 130.003L233.443 134.697L235.972 139.261L244.768 134.399ZM257.191 138.536L261.173 147.653L261.862 147.352L262.498 146.952L257.191 138.536ZM309.425 62.4049C311.885 59.8564 315.541 56.6347 317.913 54.6595L305.104 39.4186C302.498 41.5883 298.202 45.3476 295.001 48.6638L309.425 62.4049ZM312.094 56.9859L345.438 54.7789L344.266 34.8852L310.923 37.0922L312.094 56.9859ZM303.712 45.6657C298.415 44.9127 292.208 44.3921 287.494 44.8063C286.263 44.9145 284.856 45.108 283.453 45.4848C282.222 45.8155 280.058 46.5249 278.072 48.2049C275.649 50.254 273.63 53.7293 274.141 58.0227C274.549 61.4512 276.426 63.7886 277.471 64.918L292.286 51.3547C292.37 51.4455 293.75 52.8775 294.065 55.5225C294.482 59.0324 292.774 61.8459 291.003 63.3436C290.271 63.9627 289.616 64.3002 289.255 64.464C288.879 64.6347 288.617 64.7086 288.541 64.7293C288.412 64.7639 288.559 64.7142 289.1 64.6666C291.478 64.4577 295.861 64.7133 300.714 65.4031L303.712 45.6657ZM277.471 64.918C281.17 68.9133 285.85 71.9419 289.628 74.1008C291.579 75.2157 293.45 76.1871 295.02 76.9875C296.703 77.8462 297.803 78.3921 298.655 78.8597L308.463 61.3883C307.259 60.7279 305.664 59.9328 304.295 59.2343C302.811 58.4774 301.271 57.6751 299.734 56.7966C296.535 54.9687 293.931 53.1315 292.286 51.3547L277.471 64.918ZM293.631 71.6288C294.354 76.5999 296.281 81.4336 296.7 82.7463L315.826 76.573C315.589 75.8322 315.309 75.0368 315.084 74.395C314.842 73.7006 314.619 73.0579 314.408 72.3951C313.987 71.0757 313.664 69.8376 313.487 68.6192L293.631 71.6288ZM280.722 82.602C279.838 81.7976 278.902 81.0218 277.929 80.3564C277.074 79.7718 275.633 78.8799 273.787 78.3716C272.103 77.9082 267.623 77.1764 263.723 80.6524C260.188 83.8034 260.131 87.8542 260.179 89.1291C260.29 92.0146 261.489 94.5089 262.149 95.7618C263.009 97.3949 264.134 99.0693 265.424 100.629L280.962 87.8924C280.467 87.2934 280.118 86.7429 279.941 86.4053C279.563 85.6877 280.16 86.4658 280.227 88.2101C280.254 88.9143 280.314 92.5382 277.052 95.4462C273.425 98.679 269.372 97.888 268.286 97.5891C267.589 97.3972 267.102 97.165 266.87 97.0451C266.62 96.916 266.48 96.8207 266.464 96.8098C266.445 96.7968 266.648 96.9374 267.105 97.3533L280.722 82.602ZM308.304 91.7754C309.021 91.7547 309.343 91.8549 308.901 91.7728C308.595 91.7159 308.093 91.6033 307.365 91.4101C305.915 91.0251 303.993 90.434 301.712 89.6749L295.202 108.586C297.659 109.404 300.02 110.139 302.041 110.675C303.602 111.09 306.298 111.775 308.724 111.705L308.304 91.7754ZM299.503 98.4986C299.137 99.5607 298.953 99.6376 299.2 99.3464C299.564 98.9182 300.098 98.571 300.53 98.4107C300.759 98.3259 300.615 98.4286 299.543 98.5021C299.04 98.5366 298.441 98.5593 297.666 98.5782C297.282 98.5875 296.881 98.5954 296.437 98.6041C296.001 98.6126 295.528 98.6218 295.037 98.6335L295.356 118.566C296.933 118.528 299.011 118.513 300.761 118.393C302.589 118.267 304.965 117.989 307.402 117.087C313.375 114.874 316.632 110.18 318.479 104.817L299.503 98.4986ZM295.037 98.6335C293.196 98.6774 291.486 98.8157 289.923 99.1966C289.041 99.4116 288.2 99.7036 287.385 100.093C287.006 100.275 286.716 100.438 286.583 100.514C286.35 100.646 286.621 100.489 286.837 100.379L295.912 118.086C296.107 117.986 296.262 117.9 296.339 117.856C296.378 117.834 296.412 117.815 296.425 117.808C296.444 117.796 296.44 117.799 296.436 117.801C296.4 117.821 296.217 117.925 295.968 118.045C295.712 118.167 295.45 118.276 295.187 118.368C294.932 118.458 294.716 118.518 294.552 118.558C294.244 118.633 294.113 118.638 294.27 118.621C294.42 118.606 294.758 118.58 295.356 118.566L295.037 98.6335ZM253.595 114.188C252.675 113.97 251.847 113.767 251.148 113.591L246.064 132.918C246.866 133.12 247.788 133.346 248.794 133.584L253.595 114.188ZM258.344 125.568C258.522 124.849 258.743 124.034 259.005 123.15L239.764 117.661C239.422 118.815 239.122 119.918 238.868 120.941L258.344 125.568ZM301.712 89.6749C300.475 89.2629 299.16 88.8109 297.794 88.33L290.959 107.13C292.412 107.641 293.837 108.131 295.202 108.586L301.712 89.6749ZM264.481 91.293C265.871 92.8394 266.933 94.1898 267.572 95.106L284.092 83.6601C282.891 81.9375 281.294 79.95 279.493 77.9462L264.481 91.293ZM278.279 76.8053C278.696 77.1358 278.824 77.3503 278.694 77.1741L262.465 89.026C263.318 90.1847 264.368 91.3824 265.695 92.4338L278.279 76.8053ZM290.341 78.4292C289.739 75.7207 288.123 72.5036 284.659 70.5041C281.467 68.6613 278.269 68.7756 276.37 69.0773C272.843 69.6376 269.766 71.489 268.208 72.4934C266.325 73.7069 264.724 74.9882 263.855 75.7262C263.632 75.9148 263.41 76.1088 263.211 76.2902C263.137 76.3581 262.953 76.5261 262.749 76.7327C262.742 76.7392 262.332 77.1428 261.905 77.6979C261.78 77.8603 261.512 78.2176 261.223 78.7041C261.131 78.8598 260.165 80.3911 259.896 82.5934C259.823 83.943 260.443 87.2434 261.337 89.0533C262.778 90.8401 266.227 93.0404 267.979 93.525C269.139 93.6659 271.049 93.6048 271.783 93.4839C272.262 93.3745 273.064 93.1354 273.389 93.0175C274.439 92.6162 275.195 92.1131 275.236 92.0869C275.465 91.9404 275.642 91.8146 275.728 91.7524C275.91 91.6207 276.054 91.5077 276.121 91.4547C276.272 91.3353 276.408 91.2217 276.504 91.1408C276.71 90.9668 276.954 90.7545 277.229 90.5103L263.931 75.6898C263.728 75.8696 263.621 75.9611 263.59 75.9871C263.568 76.0062 263.614 75.9667 263.701 75.8975C263.737 75.8696 263.855 75.7758 264.019 75.6574C264.096 75.6019 264.265 75.4814 264.488 75.3388C264.523 75.3164 265.274 74.8158 266.321 74.4156C266.645 74.298 267.447 74.0591 267.926 73.9498C268.659 73.829 270.568 73.7679 271.728 73.9088C273.48 74.3934 276.929 76.5935 278.369 78.38C279.264 80.1897 279.883 83.4898 279.811 84.839C279.671 85.6797 279.285 87.0331 279.081 87.5497C278.924 87.8988 278.622 88.4854 278.485 88.725C278.197 89.21 277.93 89.5655 277.807 89.7258C277.544 90.0674 277.317 90.315 277.241 90.3976C277.136 90.5116 277.05 90.5999 277 90.6503C276.9 90.7514 276.823 90.8246 276.793 90.8531C276.755 90.8886 276.729 90.9131 276.717 90.9239C276.682 90.9557 276.71 90.9291 276.812 90.8425C277.24 90.4796 278.113 89.7851 279.028 89.1952C279.48 88.9039 279.816 88.7199 280.019 88.6245C280.287 88.4985 280.035 88.6604 279.38 88.7645C278.778 88.8601 276.744 89.0732 274.478 87.7649C271.94 86.2998 271.011 84.0529 270.75 82.8811L290.341 78.4292ZM330.52 62.7949C328.303 62.0567 325.537 61.1057 322.621 60.06L315.677 78.8205C318.739 79.9188 321.649 80.9195 324.008 81.705L330.52 62.7949ZM318.114 98.8197C320.05 99.4644 322.011 100.052 323.845 100.374C325.55 100.674 328.395 100.99 331.44 99.8962C335.009 98.6146 337.049 96.0956 338.154 94.127C339.024 92.5752 339.592 90.8169 339.811 90.1811L320.835 83.8626C320.657 84.3806 320.571 84.6251 320.502 84.8053C320.434 84.9817 320.482 84.8243 320.651 84.5235C320.831 84.2028 321.238 83.5536 321.969 82.8635C322.753 82.1242 323.707 81.5285 324.758 81.1512C326.641 80.475 327.948 80.8198 327.493 80.7399C327.166 80.6824 326.344 80.4816 324.626 79.9096L318.114 98.8197ZM339.811 90.1811L342.278 83.0168L323.302 76.6983L320.835 83.8626L339.811 90.1811ZM333.217 89.8136C335.315 89.7079 339.096 89.3772 342.142 88.3899C342.966 88.123 344.164 87.6755 345.392 86.9236C346.436 86.2841 348.794 84.6506 350.056 81.5023C351.621 77.6029 350.562 73.9429 348.977 71.5936C347.662 69.643 345.976 68.4861 345.003 67.8898L334.372 84.8836C334.341 84.8645 333.266 84.2427 332.285 82.7876C331.035 80.9339 330.033 77.7297 331.429 74.2487C332.524 71.5188 334.489 70.2661 334.969 69.9723C335.334 69.7488 335.623 69.6157 335.776 69.5496C335.938 69.4802 336.04 69.4465 336.062 69.4394C336.093 69.4293 335.99 69.4634 335.716 69.5196C335.456 69.5728 335.126 69.629 334.735 69.6828C333.943 69.7916 333.086 69.865 332.363 69.9015L333.217 89.8136ZM345.003 67.8898C345.169 67.9915 345.733 68.3498 346.381 69.0377C347.031 69.7279 348.081 71.0899 348.553 73.161C349.705 78.2069 346.515 81.4427 345.731 82.1392C344.92 82.8597 344.152 83.2151 344.62 82.9639C344.643 82.9515 345.052 82.7367 345.423 82.5151C345.6 82.4089 346.889 81.6732 348.064 80.3478C348.701 79.629 349.864 78.124 350.388 75.8617C350.994 73.2431 350.514 70.5892 349.206 68.4268C348.081 66.5673 346.634 65.537 345.861 65.0583C345.025 64.5406 344.27 64.2382 343.811 64.0726C342.302 63.5294 340.663 63.325 339.8 63.2199C337.552 62.9462 333.818 62.6671 327.977 62.3008L326.551 82.1991C332.511 82.5729 335.643 82.8202 337.201 83.01C337.374 83.0311 337.506 83.0489 337.602 83.0631C337.65 83.07 337.686 83.0756 337.711 83.0798C337.724 83.0818 337.733 83.0834 337.739 83.0846C337.746 83.0857 337.749 83.0863 337.749 83.0862C337.749 83.0862 337.745 83.0855 337.738 83.0841C337.731 83.0827 337.719 83.0804 337.704 83.0772C337.675 83.0711 337.625 83.0602 337.559 83.0438C337.443 83.0153 337.184 82.9479 336.841 82.8243C336.534 82.7136 335.898 82.4661 335.152 82.0039C334.468 81.5807 333.082 80.6063 331.991 78.8036C330.717 76.6979 330.246 74.1016 330.838 71.5415C331.348 69.3379 332.476 67.8926 333.059 67.2348C333.685 66.5285 334.269 66.0801 334.54 65.8815C334.844 65.6583 335.085 65.5112 335.183 65.4527C335.327 65.3666 335.465 65.295 335.202 65.4361C335.055 65.5149 334.672 65.7193 334.252 65.9775C333.843 66.2283 333.158 66.6744 332.428 67.323C331.728 67.9443 330.599 69.0912 329.762 70.8394C328.834 72.7796 328.409 75.1909 328.987 77.7213C329.521 80.0652 330.735 81.7196 331.682 82.7243C332.625 83.7266 333.618 84.4212 334.372 84.8836L345.003 67.8898ZM302.703 72.6095L295.395 70.1761L288.883 89.0862L296.191 91.5196L302.703 72.6095ZM276.829 99.4924L278.747 98.8978L272.917 79.8683L270.998 80.4629L276.829 99.4924ZM290.34 69.8386C286.49 70.5671 283.251 70.6648 280.546 70.6865L280.546 90.6237C283.688 90.5984 288.328 90.4849 293.938 89.4236L290.34 69.8386ZM291.034 107.156C294.405 108.312 298.762 108.896 302.858 108.416C306.254 108.019 313.917 106.238 316.607 98.4263L297.631 92.1077C297.92 91.2701 298.373 90.536 298.903 89.9493C299.414 89.3832 299.914 89.0426 300.25 88.8542C300.847 88.5195 301.093 88.5663 300.67 88.6158C300.314 88.6575 299.765 88.6651 299.119 88.5914C298.468 88.5173 297.969 88.3897 297.719 88.3041L291.034 107.156ZM313.739 102.703C314.794 101.773 316.375 100.914 318.242 100.253C320.104 99.5953 321.666 99.3401 322.188 99.2935L320.553 79.4358C316.631 79.7861 307.429 81.7248 300.499 87.8311L313.739 102.703ZM302.734 91.456L309.551 89.0511L302.975 70.2682L296.159 72.6731L302.734 91.456ZM272.039 84.3677C271.801 84.397 271.555 84.4267 271.301 84.4568L273.511 104.255C273.797 104.221 274.076 104.187 274.347 104.154L272.039 84.3677ZM268.49 85.2098C255.615 90.7391 248.063 93.7511 243.986 95.8158C241.843 96.901 239.381 98.321 237.377 100.569C235.226 102.983 234.359 105.529 233.912 106.827L252.888 113.145C253.263 112.055 253.088 112.89 252.347 113.722C251.753 114.387 251.422 114.354 252.979 113.565C256.301 111.883 262.43 109.468 276.322 103.502L268.49 85.2098ZM234.78 115.154C237.212 119.194 239.093 122.493 240.531 125.165L258.237 115.647C256.616 112.637 254.573 109.061 252.02 104.818L234.78 115.154ZM242.201 128.373C244.129 132.236 244.369 133.452 244.325 133.19C244.3 133.038 244.207 132.436 244.279 131.56C244.345 130.774 244.612 128.899 246.027 126.957C247.703 124.657 250.241 123.295 252.856 123.017C255.057 122.783 256.708 123.366 257.431 123.672L249.462 142.033C250.475 142.46 252.396 143.101 254.831 142.842C257.68 142.538 260.418 141.07 262.242 138.566C263.807 136.419 264.174 134.241 264.273 133.039C264.381 131.746 264.257 130.613 264.122 129.8C263.642 126.894 262.176 123.382 260.188 119.399L242.201 128.373ZM253.989 122.894C252.342 122.818 249.773 122.817 247.299 123.115C246.101 123.26 244.471 123.526 242.839 124.093C241.814 124.45 237.891 125.845 235.801 130.003L253.735 138.795C252.796 140.663 251.484 141.698 250.79 142.16C250.074 142.637 249.506 142.844 249.329 142.906C248.995 143.022 249.003 142.974 249.557 142.907C250.588 142.783 251.977 142.768 252.904 142.811L253.989 122.894ZM235.972 139.261C237.816 142.59 241.135 145.659 245.119 147.488C249.422 149.464 255.187 150.274 261.173 147.653L253.209 129.418C253.196 129.424 253.233 129.407 253.313 129.392C253.392 129.378 253.476 129.372 253.553 129.376C253.706 129.382 253.742 129.417 253.654 129.377C253.612 129.357 253.556 129.327 253.491 129.284C253.426 129.24 253.37 129.195 253.328 129.157C253.285 129.118 253.279 129.106 253.306 129.14C253.321 129.158 253.351 129.196 253.393 129.256C253.433 129.316 253.493 129.408 253.564 129.536L235.972 139.261ZM262.498 146.952C276.779 137.989 285.005 133.628 289.745 131.176C291.878 130.072 294.083 128.972 295.592 128.025C297.403 126.888 300.19 124.809 301.532 120.913L282.556 114.595C283.418 112.092 285.246 111.024 284.978 111.192C284.409 111.549 283.416 112.047 280.594 113.507C275.421 116.184 266.701 120.821 251.885 130.119L262.498 146.952ZM311.259 111.306C311.68 111.183 311.299 111.311 310.733 111.411C310.607 111.434 310.367 111.474 310.06 111.506C309.861 111.527 309.127 111.604 308.188 111.527C307.745 111.49 306.723 111.382 305.51 110.929C304.439 110.53 301.709 109.295 300.105 106.07C298.309 102.458 299.234 99.1055 300.035 97.4137C300.768 95.8641 301.722 94.8892 302.096 94.5231C302.916 93.7218 303.685 93.2531 303.853 93.1496C304.15 92.967 304.392 92.8395 304.514 92.7765C304.765 92.6476 304.956 92.5636 305.009 92.5405L312.973 110.775C313.09 110.724 313.332 110.616 313.62 110.469C313.761 110.396 314.018 110.26 314.326 110.07C314.506 109.96 315.284 109.485 316.109 108.678C316.485 108.31 317.441 107.333 318.175 105.781C318.977 104.087 319.902 100.733 318.105 97.1199C316.501 93.8935 313.769 92.6574 312.696 92.257C311.48 91.8032 310.455 91.6942 310.009 91.6574C309.061 91.5792 308.316 91.6572 308.103 91.6797C307.782 91.7136 307.524 91.7562 307.377 91.7822C306.646 91.9114 305.898 92.1366 305.768 92.1744L311.259 111.306ZM301.532 120.913C302.635 117.709 302.325 114.273 302.157 112.703C301.934 110.609 301.521 108.514 301.15 106.915L281.6 111.549C281.862 112.678 282.097 113.934 282.207 114.963C282.262 115.477 282.267 115.775 282.265 115.88C282.264 115.924 282.263 115.846 282.287 115.671C282.31 115.512 282.374 115.123 282.556 114.595L301.532 120.913ZM326.078 76.5925L351.781 51.9844L337.923 37.6798L312.22 62.288L326.078 76.5925Z" fill="black" fill-opacity="0.1" mask="url(#path-1-inside-1_228_379)"/>
<g filter="url(#filter0_d_228_379)">
<path d="M270.888 79.1514L270.884 79.1573L270.879 79.1635M270.888 79.1514L270.872 79.1726L270.879 79.1635M270.888 79.1514L270.891 79.1469L270.888 79.1514ZM270.888 79.1514L270.897 79.153L270.888 79.1514ZM270.879 79.1635L270.886 79.1647L270.879 79.1635ZM296.678 48.6639L314.154 46.9757C313.597 47.2412 313.036 47.5006 312.473 47.7521C309.818 48.9374 307.187 49.914 304.794 50.5092C302.36 51.1146 300.397 51.2678 298.977 51.016C297.701 50.7896 296.238 50.5785 294.664 50.3894C295.373 49.7675 296.059 49.1815 296.678 48.6639ZM310.502 55.0013L305.738 59.5688C300.955 58.4591 296.023 57.2359 292.348 56.1623C294.432 56.3823 296.338 56.64 297.889 56.9151C300.497 57.3779 303.406 57.0206 306.214 56.3221C307.622 55.972 309.061 55.5213 310.502 55.0013ZM244.696 95.8898C245.251 95.6195 245.891 95.3265 246.635 95.0002C246.056 96.3726 245.569 97.792 245.164 99.191C244.455 98.4591 243.704 97.6919 242.909 96.8879C243.221 96.6686 243.76 96.346 244.696 95.8898ZM253.117 95.3144C253.996 93.695 254.912 92.5484 255.851 91.8132L256.143 92.1061C258.753 94.7259 260.924 96.9809 262.709 98.9212C260.731 99.7439 258.944 100.534 257.455 101.261C256.243 101.853 255.153 102.439 254.296 103C253.87 103.28 253.438 103.594 253.059 103.94C252.756 104.217 252.291 104.688 251.97 105.348C251.55 105.293 251.139 105.237 250.738 105.183C250.523 104.939 250.3 104.689 250.07 104.431C250.654 101.407 251.652 98.01 253.117 95.3144ZM260.678 106.347C262.366 105.548 264.464 104.65 266.835 103.695C267.651 104.732 268.247 105.581 268.663 106.272C268.755 106.425 268.835 106.565 268.904 106.691C268.854 106.696 268.803 106.7 268.75 106.705C267.179 106.835 264.212 106.678 260.678 106.347ZM257.081 108.368C257.08 108.368 257.087 108.36 257.104 108.345C257.09 108.361 257.081 108.368 257.081 108.368ZM272.668 101.432C275.952 100.197 279.432 98.9442 282.822 97.7552C283.333 97.8218 283.765 97.8756 284.133 97.9165C284.363 98.4398 284.577 98.9683 284.751 99.4679C284.894 99.8812 284.997 100.236 285.062 100.524C284.435 100.897 283.498 101.362 281.966 102.121C281.614 102.296 281.229 102.487 280.81 102.695C279.272 103.461 277.366 104.421 275.009 105.666C274.728 104.798 274.296 103.956 273.82 103.165C273.493 102.622 273.109 102.045 272.668 101.432ZM259.646 112.271C260.674 112.37 261.702 112.46 262.699 112.534C260.677 113.714 258.491 115.013 256.126 116.445C256.075 116.464 256.024 116.484 255.972 116.502C255.987 116.481 256.002 116.459 256.018 116.437C256.625 115.541 256.64 114.611 256.582 114.068C256.522 113.505 256.348 113 256.18 112.602C256.082 112.371 255.963 112.126 255.823 111.865C257.099 112.012 258.388 112.15 259.646 112.271ZM250.66 115.008C250.66 115.008 250.659 115.004 250.656 114.996C250.659 115.004 250.66 115.008 250.66 115.008ZM316.777 76.0024C315.91 75.9208 314.699 75.7185 312.98 75.362L313.824 73.656C311.934 72.7352 310.443 71.6112 308.87 70.426C308.734 70.3232 308.597 70.2199 308.459 70.1163L315.498 67.6956C316.863 67.7056 318.085 67.7168 319.178 67.7293L318.738 69.7579L317.506 75.4269C317.452 75.6754 317.409 75.8728 317.369 76.0405C317.214 76.0362 317.019 76.0251 316.777 76.0024ZM282.311 56.9821C282.359 57.2686 282.441 57.5226 282.538 57.7432C280.749 57.0577 278.97 56.3107 277.305 55.4992C278.828 55.4456 280.55 55.4473 282.367 55.4966C282.27 55.9156 282.218 56.4255 282.311 56.9821ZM295.992 77.1984C296.164 77.1737 296.337 77.1419 296.508 77.1014C297.122 76.9558 297.97 76.6374 298.657 75.8826C299.295 75.1822 299.548 74.4257 299.606 73.7329L300.537 72.8403L301.043 72.6665C301.827 72.8443 302.765 73.3809 304.293 74.5135C304.554 74.7063 304.829 74.9144 305.118 75.1335C305.609 75.5052 306.143 75.9088 306.719 76.3246C306.186 76.4795 305.64 76.6517 305.088 76.842C302.488 77.7379 299.516 79.1139 297.158 81.1727L296.404 81.8304L296.245 82.5646C296.216 82.5827 296.179 82.6041 296.134 82.6284C295.744 82.8392 295.049 83.0621 294.036 83.2027C292.682 83.3905 291.117 83.3844 289.689 83.2414L295.992 77.1984ZM287.258 77.2864L284.873 79.5732L285.087 77.9491L287.258 77.2864ZM267.981 95.7684C267.648 95.4004 267.303 95.0222 266.944 94.6334C267.431 94.8187 267.97 95.0084 268.575 95.1988L267.981 95.7684ZM288.893 89.3452C287.894 89.6815 286.861 90.0319 285.803 90.3935C286.055 90.0848 286.266 89.781 286.439 89.5074C286.802 89.3878 287.148 89.266 287.451 89.1451C287.508 89.1222 287.57 89.0967 287.637 89.0686C288.085 89.1685 288.503 89.2606 288.893 89.3452ZM273.375 85.7086C274.522 85.9918 275.7 86.2797 276.892 86.568C276.777 86.6426 276.655 86.7273 276.532 86.8228C275.934 86.7623 275.108 86.6389 274.007 86.4613C273.531 86.3402 273.032 86.1565 272.521 85.9219C272.831 85.8496 273.114 85.7786 273.375 85.7086ZM296.341 82.4942C296.342 82.4942 296.339 82.4971 296.332 82.5027C296.338 82.4969 296.341 82.4941 296.341 82.4942Z" stroke="black" stroke-opacity="0.1" stroke-width="6" shape-rendering="crispEdges"/>
</g>
<g filter="url(#filter1_d_228_379)">
<rect width="166.057" height="17.7996" rx="8.89981" transform="matrix(0.866223 0.499657 -0.512316 0.858797 40.6472 15.2864)" fill="#A54040"/>
<rect x="1.23868" y="4.75459" width="159.057" height="10.7996" rx="5.39981" transform="matrix(0.866223 0.499657 -0.512316 0.858797 43.2488 15.3388)" stroke="#823F3F" stroke-opacity="0.2" stroke-width="7"/>
<ellipse rx="37.1185" ry="26.6994" transform="matrix(0.866223 0.499657 -0.512316 0.858797 191.776 112.734)" fill="#A54040"/>
<path d="M220.897 129.531C217.843 134.65 212.011 137.884 204.524 138.6C197.044 139.316 188.205 137.454 179.89 132.657C171.575 127.861 165.609 121.183 162.594 114.414C159.576 107.639 159.601 101.054 162.654 95.936C165.708 90.8175 171.54 87.5831 179.027 86.8671C186.507 86.1518 195.346 88.0138 203.661 92.8101C211.976 97.6065 217.942 104.284 220.957 111.054C223.975 117.829 223.95 124.413 220.897 129.531Z" stroke="#823F3F" stroke-opacity="0.2" stroke-width="7"/>
</g>
<g filter="url(#filter2_d_228_379)">
<path d="M94.537 107.658L308.855 109.746C323.214 109.886 334.736 121.639 334.592 135.998L333.658 228.599L105.341 226.374C98.7141 226.31 93.396 220.885 93.4627 214.258L94.537 107.658Z" fill="#BF7D2C"/>
</g>
<g filter="url(#filter3_d_228_379)">
<path d="M95.6277 134.119L25.7917 133.35C13.7565 133.218 4.1111 123.354 4.24804 111.319V111.319L95.8756 112.327L95.6277 134.119Z" fill="#3D3D3D"/>
</g>
<g filter="url(#filter4_bd_228_379)">
<path d="M154.055 209.109L123.047 177.333V209.109H118.727V141.717H123.047V173.781L154.055 141.717H159.623L126.791 175.509L159.719 209.109H154.055ZM213.791 156.981V209.109H209.471V197.781C207.999 201.749 205.535 204.789 202.079 206.901C198.687 208.949 194.783 209.973 190.367 209.973C184.159 209.973 179.071 208.085 175.103 204.309C171.199 200.469 169.247 194.805 169.247 187.317V156.981H173.471V187.029C173.471 193.237 175.039 198.005 178.175 201.333C181.311 204.597 185.567 206.229 190.943 206.229C196.575 206.229 201.055 204.437 204.383 200.853C207.775 197.269 209.471 191.957 209.471 184.917V156.981H213.791ZM256.611 209.109L233.859 185.205V209.109H229.539V138.069H233.859V180.597L256.227 156.981H262.275L237.027 182.901L262.563 209.109H256.611ZM298.517 209.109L275.765 185.205V209.109H271.445V138.069H275.765V180.597L298.133 156.981H304.181L278.933 182.901L304.469 209.109H298.517ZM315.56 145.365C314.536 145.365 313.672 145.045 312.968 144.405C312.264 143.701 311.912 142.773 311.912 141.621C311.912 140.533 312.264 139.637 312.968 138.933C313.672 138.229 314.536 137.877 315.56 137.877C316.584 137.877 317.448 138.229 318.152 138.933C318.856 139.637 319.208 140.533 319.208 141.621C319.208 142.773 318.856 143.701 318.152 144.405C317.448 145.045 316.584 145.365 315.56 145.365ZM317.672 156.981V209.109H313.352V156.981H317.672Z" fill="black"/>
</g>
<path d="M21.8291 261.832C21.8291 259.656 22.3198 257.704 23.3011 255.976C24.2825 254.227 25.6158 252.861 27.3011 251.88C29.0078 250.899 30.8958 250.408 32.9651 250.408C35.3971 250.408 37.5198 250.995 39.3331 252.168C41.1465 253.341 42.4691 255.005 43.3011 257.16H39.8131C39.1945 255.816 38.2985 254.781 37.1251 254.056C35.9731 253.331 34.5865 252.968 32.9651 252.968C31.4078 252.968 30.0105 253.331 28.7731 254.056C27.5358 254.781 26.5651 255.816 25.8611 257.16C25.1571 258.483 24.8051 260.04 24.8051 261.832C24.8051 263.603 25.1571 265.16 25.8611 266.504C26.5651 267.827 27.5358 268.851 28.7731 269.576C30.0105 270.301 31.4078 270.664 32.9651 270.664C34.5865 270.664 35.9731 270.312 37.1251 269.608C38.2985 268.883 39.1945 267.848 39.8131 266.504H43.3011C42.4691 268.637 41.1465 270.291 39.3331 271.464C37.5198 272.616 35.3971 273.192 32.9651 273.192C30.8958 273.192 29.0078 272.712 27.3011 271.752C25.6158 270.771 24.2825 269.416 23.3011 267.688C22.3198 265.96 21.8291 264.008 21.8291 261.832ZM46.5479 264.168C46.5479 262.376 46.9105 260.808 47.6359 259.464C48.3612 258.099 49.3532 257.043 50.6119 256.296C51.8919 255.549 53.3105 255.176 54.8679 255.176C56.4039 255.176 57.7372 255.507 58.8679 256.168C59.9985 256.829 60.8412 257.661 61.3959 258.664V255.464H64.3399V273H61.3959V269.736C60.8199 270.76 59.9559 271.613 58.8039 272.296C57.6732 272.957 56.3505 273.288 54.8359 273.288C53.2785 273.288 51.8705 272.904 50.6119 272.136C49.3532 271.368 48.3612 270.291 47.6359 268.904C46.9105 267.517 46.5479 265.939 46.5479 264.168ZM61.3959 264.2C61.3959 262.877 61.1292 261.725 60.5959 260.744C60.0625 259.763 59.3372 259.016 58.4199 258.504C57.5239 257.971 56.5319 257.704 55.4439 257.704C54.3559 257.704 53.3639 257.96 52.4679 258.472C51.5719 258.984 50.8572 259.731 50.3239 260.712C49.7905 261.693 49.5239 262.845 49.5239 264.168C49.5239 265.512 49.7905 266.685 50.3239 267.688C50.8572 268.669 51.5719 269.427 52.4679 269.96C53.3639 270.472 54.3559 270.728 55.4439 270.728C56.5319 270.728 57.5239 270.472 58.4199 269.96C59.3372 269.427 60.0625 268.669 60.5959 267.688C61.1292 266.685 61.3959 265.523 61.3959 264.2ZM76.3969 257.864H72.7169V273H69.8049V257.864H67.5329V255.464H69.8049V254.216C69.8049 252.253 70.3062 250.824 71.3089 249.928C72.3329 249.011 73.9649 248.552 76.2049 248.552V250.984C74.9249 250.984 74.0182 251.24 73.4849 251.752C72.9729 252.243 72.7169 253.064 72.7169 254.216V255.464H76.3969V257.864ZM95.7921 263.56C95.7921 264.115 95.7601 264.701 95.6961 265.32H81.6801C81.7868 267.048 82.3735 268.403 83.4401 269.384C84.5281 270.344 85.8401 270.824 87.3761 270.824C88.6348 270.824 89.6801 270.536 90.5121 269.96C91.3655 269.363 91.9628 268.573 92.3041 267.592H95.4401C94.9708 269.277 94.0321 270.653 92.6241 271.72C91.2161 272.765 89.4668 273.288 87.3761 273.288C85.7121 273.288 84.2188 272.915 82.8961 272.168C81.5948 271.421 80.5708 270.365 79.8241 269C79.0775 267.613 78.7041 266.013 78.7041 264.2C78.7041 262.387 79.0668 260.797 79.7921 259.432C80.5175 258.067 81.5308 257.021 82.8321 256.296C84.1548 255.549 85.6695 255.176 87.3761 255.176C89.0401 255.176 90.5121 255.539 91.7921 256.264C93.0721 256.989 94.0535 257.992 94.7361 259.272C95.4401 260.531 95.7921 261.96 95.7921 263.56ZM92.7841 262.952C92.7841 261.843 92.5388 260.893 92.0481 260.104C91.5575 259.293 90.8855 258.685 90.0321 258.28C89.2001 257.853 88.2721 257.64 87.2481 257.64C85.7761 257.64 84.5175 258.109 83.4721 259.048C82.4481 259.987 81.8615 261.288 81.7121 262.952H92.7841ZM90.3841 250.504L83.5681 254.152V251.976L90.3841 247.976V250.504ZM124.167 263.56C124.167 264.115 124.135 264.701 124.071 265.32H110.055C110.162 267.048 110.748 268.403 111.815 269.384C112.903 270.344 114.215 270.824 115.751 270.824C117.01 270.824 118.055 270.536 118.887 269.96C119.74 269.363 120.338 268.573 120.679 267.592H123.815C123.346 269.277 122.407 270.653 120.999 271.72C119.591 272.765 117.842 273.288 115.751 273.288C114.087 273.288 112.594 272.915 111.271 272.168C109.97 271.421 108.946 270.365 108.199 269C107.452 267.613 107.079 266.013 107.079 264.2C107.079 262.387 107.442 260.797 108.167 259.432C108.892 258.067 109.906 257.021 111.207 256.296C112.53 255.549 114.044 255.176 115.751 255.176C117.415 255.176 118.887 255.539 120.167 256.264C121.447 256.989 122.428 257.992 123.111 259.272C123.815 260.531 124.167 261.96 124.167 263.56ZM121.159 262.952C121.159 261.843 120.914 260.893 120.423 260.104C119.932 259.293 119.26 258.685 118.407 258.28C117.575 257.853 116.647 257.64 115.623 257.64C114.151 257.64 112.892 258.109 111.847 259.048C110.823 259.987 110.236 261.288 110.087 262.952H121.159ZM145.246 255.144C146.569 255.144 147.763 255.432 148.83 256.008C149.897 256.563 150.729 257.405 151.326 258.536C151.945 259.667 152.254 261.043 152.254 262.664V273H149.374V263.08C149.374 261.331 148.937 259.997 148.062 259.08C147.187 258.141 145.993 257.672 144.478 257.672C142.942 257.672 141.715 258.152 140.798 259.112C139.902 260.072 139.454 261.469 139.454 263.304V273H136.542V249.32H139.454V257.96C140.03 257.064 140.819 256.371 141.822 255.88C142.846 255.389 143.987 255.144 145.246 255.144ZM155.923 264.168C155.923 262.376 156.286 260.808 157.011 259.464C157.736 258.099 158.728 257.043 159.987 256.296C161.267 255.549 162.686 255.176 164.243 255.176C165.779 255.176 167.112 255.507 168.243 256.168C169.374 256.829 170.216 257.661 170.771 258.664V255.464H173.715V273H170.771V269.736C170.195 270.76 169.331 271.613 168.179 272.296C167.048 272.957 165.726 273.288 164.211 273.288C162.654 273.288 161.246 272.904 159.987 272.136C158.728 271.368 157.736 270.291 157.011 268.904C156.286 267.517 155.923 265.939 155.923 264.168ZM170.771 264.2C170.771 262.877 170.504 261.725 169.971 260.744C169.438 259.763 168.712 259.016 167.795 258.504C166.899 257.971 165.907 257.704 164.819 257.704C163.731 257.704 162.739 257.96 161.843 258.472C160.947 258.984 160.232 259.731 159.699 260.712C159.166 261.693 158.899 262.845 158.899 264.168C158.899 265.512 159.166 266.685 159.699 267.688C160.232 268.669 160.947 269.427 161.843 269.96C162.739 270.472 163.731 270.728 164.819 270.728C165.907 270.728 166.899 270.472 167.795 269.96C168.712 269.427 169.438 268.669 169.971 267.688C170.504 266.685 170.771 265.523 170.771 264.2ZM199.724 255.144C201.089 255.144 202.305 255.432 203.372 256.008C204.439 256.563 205.281 257.405 205.9 258.536C206.519 259.667 206.828 261.043 206.828 262.664V273H203.948V263.08C203.948 261.331 203.511 259.997 202.636 259.08C201.783 258.141 200.62 257.672 199.148 257.672C197.633 257.672 196.428 258.163 195.532 259.144C194.636 260.104 194.188 261.501 194.188 263.336V273H191.308V263.08C191.308 261.331 190.871 259.997 189.996 259.08C189.143 258.141 187.98 257.672 186.508 257.672C184.993 257.672 183.788 258.163 182.892 259.144C181.996 260.104 181.548 261.501 181.548 263.336V273H178.636V255.464H181.548V257.992C182.124 257.075 182.892 256.371 183.852 255.88C184.833 255.389 185.911 255.144 187.084 255.144C188.556 255.144 189.857 255.475 190.988 256.136C192.119 256.797 192.961 257.768 193.516 259.048C194.007 257.811 194.817 256.851 195.948 256.168C197.079 255.485 198.337 255.144 199.724 255.144ZM214.517 258.728C215.114 257.683 215.989 256.829 217.141 256.168C218.293 255.507 219.605 255.176 221.077 255.176C222.655 255.176 224.074 255.549 225.333 256.296C226.591 257.043 227.583 258.099 228.309 259.464C229.034 260.808 229.397 262.376 229.397 264.168C229.397 265.939 229.034 267.517 228.309 268.904C227.583 270.291 226.581 271.368 225.301 272.136C224.042 272.904 222.634 273.288 221.077 273.288C219.562 273.288 218.229 272.957 217.077 272.296C215.946 271.635 215.093 270.792 214.517 269.768V273H211.605V249.32H214.517V258.728ZM226.421 264.168C226.421 262.845 226.154 261.693 225.621 260.712C225.087 259.731 224.362 258.984 223.445 258.472C222.549 257.96 221.557 257.704 220.469 257.704C219.402 257.704 218.41 257.971 217.493 258.504C216.597 259.016 215.871 259.773 215.317 260.776C214.783 261.757 214.517 262.899 214.517 264.2C214.517 265.523 214.783 266.685 215.317 267.688C215.871 268.669 216.597 269.427 217.493 269.96C218.41 270.472 219.402 270.728 220.469 270.728C221.557 270.728 222.549 270.472 223.445 269.96C224.362 269.427 225.087 268.669 225.621 267.688C226.154 266.685 226.421 265.512 226.421 264.168ZM248.782 255.464V273H245.87V270.408C245.315 271.304 244.536 272.008 243.534 272.52C242.552 273.011 241.464 273.256 240.27 273.256C238.904 273.256 237.678 272.979 236.59 272.424C235.502 271.848 234.638 270.995 233.998 269.864C233.379 268.733 233.07 267.357 233.07 265.736V255.464H235.95V265.352C235.95 267.08 236.387 268.413 237.262 269.352C238.136 270.269 239.331 270.728 240.846 270.728C242.403 270.728 243.63 270.248 244.526 269.288C245.422 268.328 245.87 266.931 245.87 265.096V255.464H248.782ZM256.61 258.312C257.122 257.309 257.848 256.531 258.786 255.976C259.746 255.421 260.909 255.144 262.274 255.144V258.152H261.506C258.242 258.152 256.61 259.923 256.61 263.464V273H253.698V255.464H256.61V258.312ZM272.868 255.176C274.383 255.176 275.705 255.507 276.836 256.168C277.988 256.829 278.841 257.661 279.396 258.664V255.464H282.34V273.384C282.34 274.984 281.999 276.403 281.316 277.64C280.633 278.899 279.652 279.88 278.372 280.584C277.113 281.288 275.641 281.64 273.956 281.64C271.652 281.64 269.732 281.096 268.196 280.008C266.66 278.92 265.753 277.437 265.476 275.56H268.356C268.676 276.627 269.337 277.48 270.34 278.12C271.343 278.781 272.548 279.112 273.956 279.112C275.556 279.112 276.857 278.611 277.86 277.608C278.884 276.605 279.396 275.197 279.396 273.384V269.704C278.82 270.728 277.967 271.581 276.836 272.264C275.705 272.947 274.383 273.288 272.868 273.288C271.311 273.288 269.892 272.904 268.612 272.136C267.353 271.368 266.361 270.291 265.636 268.904C264.911 267.517 264.548 265.939 264.548 264.168C264.548 262.376 264.911 260.808 265.636 259.464C266.361 258.099 267.353 257.043 268.612 256.296C269.892 255.549 271.311 255.176 272.868 255.176ZM279.396 264.2C279.396 262.877 279.129 261.725 278.596 260.744C278.063 259.763 277.337 259.016 276.42 258.504C275.524 257.971 274.532 257.704 273.444 257.704C272.356 257.704 271.364 257.96 270.468 258.472C269.572 258.984 268.857 259.731 268.324 260.712C267.791 261.693 267.524 262.845 267.524 264.168C267.524 265.512 267.791 266.685 268.324 267.688C268.857 268.669 269.572 269.427 270.468 269.96C271.364 270.472 272.356 270.728 273.444 270.728C274.532 270.728 275.524 270.472 276.42 269.96C277.337 269.427 278.063 268.669 278.596 267.688C279.129 266.685 279.396 265.523 279.396 264.2ZM302.813 255.464V273H299.901V270.408C299.346 271.304 298.568 272.008 297.565 272.52C296.584 273.011 295.496 273.256 294.301 273.256C292.936 273.256 291.709 272.979 290.621 272.424C289.533 271.848 288.669 270.995 288.029 269.864C287.41 268.733 287.101 267.357 287.101 265.736V255.464H289.981V265.352C289.981 267.08 290.418 268.413 291.293 269.352C292.168 270.269 293.362 270.728 294.877 270.728C296.434 270.728 297.661 270.248 298.557 269.288C299.453 268.328 299.901 266.931 299.901 265.096V255.464H302.813ZM323.73 263.56C323.73 264.115 323.698 264.701 323.634 265.32H309.618C309.724 267.048 310.311 268.403 311.378 269.384C312.466 270.344 313.778 270.824 315.314 270.824C316.572 270.824 317.618 270.536 318.45 269.96C319.303 269.363 319.9 268.573 320.242 267.592H323.378C322.908 269.277 321.97 270.653 320.562 271.72C319.154 272.765 317.404 273.288 315.314 273.288C313.65 273.288 312.156 272.915 310.834 272.168C309.532 271.421 308.508 270.365 307.762 269C307.015 267.613 306.642 266.013 306.642 264.2C306.642 262.387 307.004 260.797 307.73 259.432C308.455 258.067 309.468 257.021 310.77 256.296C312.092 255.549 313.607 255.176 315.314 255.176C316.978 255.176 318.45 255.539 319.73 256.264C321.01 256.989 321.991 257.992 322.674 259.272C323.378 260.531 323.73 261.96 323.73 263.56ZM320.722 262.952C320.722 261.843 320.476 260.893 319.986 260.104C319.495 259.293 318.823 258.685 317.97 258.28C317.138 257.853 316.21 257.64 315.186 257.64C313.714 257.64 312.455 258.109 311.41 259.048C310.386 259.987 309.799 261.288 309.65 262.952H320.722ZM330.485 258.312C330.997 257.309 331.723 256.531 332.661 255.976C333.621 255.421 334.784 255.144 336.149 255.144V258.152H335.381C332.117 258.152 330.485 259.923 330.485 263.464V273H327.573V255.464H330.485V258.312ZM341.015 252.616C340.46 252.616 339.991 252.424 339.607 252.04C339.223 251.656 339.031 251.187 339.031 250.632C339.031 250.077 339.223 249.608 339.607 249.224C339.991 248.84 340.46 248.648 341.015 248.648C341.548 248.648 341.996 248.84 342.359 249.224C342.743 249.608 342.935 250.077 342.935 250.632C342.935 251.187 342.743 251.656 342.359 252.04C341.996 252.424 341.548 252.616 341.015 252.616ZM342.423 255.464V273H339.511V255.464H342.423ZM346.298 264.168C346.298 262.376 346.661 260.808 347.386 259.464C348.111 258.099 349.103 257.043 350.362 256.296C351.642 255.549 353.061 255.176 354.618 255.176C356.154 255.176 357.487 255.507 358.618 256.168C359.749 256.829 360.591 257.661 361.146 258.664V255.464H364.09V273H361.146V269.736C360.57 270.76 359.706 271.613 358.554 272.296C357.423 272.957 356.101 273.288 354.586 273.288C353.029 273.288 351.621 272.904 350.362 272.136C349.103 271.368 348.111 270.291 347.386 268.904C346.661 267.517 346.298 265.939 346.298 264.168ZM361.146 264.2C361.146 262.877 360.879 261.725 360.346 260.744C359.813 259.763 359.087 259.016 358.17 258.504C357.274 257.971 356.282 257.704 355.194 257.704C354.106 257.704 353.114 257.96 352.218 258.472C351.322 258.984 350.607 259.731 350.074 260.712C349.541 261.693 349.274 262.845 349.274 264.168C349.274 265.512 349.541 266.685 350.074 267.688C350.607 268.669 351.322 269.427 352.218 269.96C353.114 270.472 354.106 270.728 355.194 270.728C356.282 270.728 357.274 270.472 358.17 269.96C359.087 269.427 359.813 268.669 360.346 267.688C360.879 266.685 361.146 265.523 361.146 264.2Z" fill="black"/>
<defs>
<filter id="filter0_d_228_379" x="235.298" y="42.6595" width="97.8339" height="85.2631" filterUnits="userSpaceOnUse" color-interpolation-filters="sRGB">
<feFlood flood-opacity="0" result="BackgroundImageFix"/>
<feColorMatrix in="SourceAlpha" type="matrix" values="0 0 0 0 0 0 0 0 0 0 0 0 0 0 0 0 0 0 127 0" result="hardAlpha"/>
<feOffset dy="4"/>
<feGaussianBlur stdDeviation="2"/>
<feComposite in2="hardAlpha" operator="out"/>
<feColorMatrix type="matrix" values="0 0 0 0 0 0 0 0 0 0 0 0 0 0 0 0 0 0 0.25 0"/>
<feBlend mode="normal" in2="BackgroundImageFix" result="effect1_dropShadow_228_379"/>
<feBlend mode="normal" in="SourceGraphic" in2="effect1_dropShadow_228_379" result="shape"/>
</filter>
<filter id="filter1_d_228_379" x="30.8389" y="18.5323" width="199.887" height="131.694" filterUnits="userSpaceOnUse" color-interpolation-filters="sRGB">
<feFlood flood-opacity="0" result="BackgroundImageFix"/>
<feColorMatrix in="SourceAlpha" type="matrix" values="0 0 0 0 0 0 0 0 0 0 0 0 0 0 0 0 0 0 127 0" result="hardAlpha"/>
<feOffset dy="4"/>
<feGaussianBlur stdDeviation="2"/>
<feComposite in2="hardAlpha" operator="out"/>
<feColorMatrix type="matrix" values="0 0 0 0 0 0 0 0 0 0 0 0 0 0 0 0 0 0 0.25 0"/>
<feBlend mode="normal" in2="BackgroundImageFix" result="effect1_dropShadow_228_379"/>
<feBlend mode="normal" in="SourceGraphic" in2="effect1_dropShadow_228_379" result="shape"/>
</filter>
<filter id="filter2_d_228_379" x="89.4622" y="107.658" width="249.131" height="128.941" filterUnits="userSpaceOnUse" color-interpolation-filters="sRGB">
<feFlood flood-opacity="0" result="BackgroundImageFix"/>
<feColorMatrix in="SourceAlpha" type="matrix" values="0 0 0 0 0 0 0 0 0 0 0 0 0 0 0 0 0 0 127 0" result="hardAlpha"/>
<feOffset dy="4"/>
<feGaussianBlur stdDeviation="2"/>
<feComposite in2="hardAlpha" operator="out"/>
<feColorMatrix type="matrix" values="0 0 0 0 0 0 0 0 0 0 0 0 0 0 0 0 0 0 0.25 0"/>
<feBlend mode="normal" in2="BackgroundImageFix" result="effect1_dropShadow_228_379"/>
<feBlend mode="normal" in="SourceGraphic" in2="effect1_dropShadow_228_379" result="shape"/>
</filter>
<filter id="filter3_d_228_379" x="0.246582" y="111.319" width="99.629" height="30.7996" filterUnits="userSpaceOnUse" color-interpolation-filters="sRGB">
<feFlood flood-opacity="0" result="BackgroundImageFix"/>
<feColorMatrix in="SourceAlpha" type="matrix" values="0 0 0 0 0 0 0 0 0 0 0 0 0 0 0 0 0 0 127 0" result="hardAlpha"/>
<feOffset dy="4"/>
<feGaussianBlur stdDeviation="2"/>
<feComposite in2="hardAlpha" operator="out"/>
<feColorMatrix type="matrix" values="0 0 0 0 0 0 0 0 0 0 0 0 0 0 0 0 0 0 0.25 0"/>
<feBlend mode="normal" in2="BackgroundImageFix" result="effect1_dropShadow_228_379"/>
<feBlend mode="normal" in="SourceGraphic" in2="effect1_dropShadow_228_379" result="shape"/>
</filter>
<filter id="filter4_bd_228_379" x="114.727" y="133.877" width="208.481" height="84.0961" filterUnits="userSpaceOnUse" color-interpolation-filters="sRGB">
<feFlood flood-opacity="0" result="BackgroundImageFix"/>
<feGaussianBlur in="BackgroundImage" stdDeviation="2"/>
<feComposite in2="SourceAlpha" operator="in" result="effect1_backgroundBlur_228_379"/>
<feColorMatrix in="SourceAlpha" type="matrix" values="0 0 0 0 0 0 0 0 0 0 0 0 0 0 0 0 0 0 127 0" result="hardAlpha"/>
<feOffset dy="4"/>
<feGaussianBlur stdDeviation="2"/>
<feComposite in2="hardAlpha" operator="out"/>
<feColorMatrix type="matrix" values="0 0 0 0 0 0 0 0 0 0 0 0 0 0 0 0 0 0 0.25 0"/>
<feBlend mode="normal" in2="effect1_backgroundBlur_228_379" result="effect2_dropShadow_228_379"/>
<feBlend mode="normal" in="SourceGraphic" in2="effect2_dropShadow_228_379" result="shape"/>
</filter>
</defs>
</svg>
