<svg width="531" height="375" viewBox="0 0 531 375" fill="none" xmlns="http://www.w3.org/2000/svg">
<g filter="url(#filter0_d_101_413)">
<path d="M456.584 92.9552C455.959 92.6063 455.258 92.2313 454.521 91.8438L457.287 88.9295C460.091 85.9759 463.887 82.472 467.064 79.6779L481.249 78.7231L465.873 93.6934L461.688 97.7686L461.383 95.6337L456.584 92.9552ZM481.736 116.269L481.744 116.271L480.379 120.301C480.377 120.3 480.374 120.299 480.372 120.298L478.147 119.545L475.808 119.757C473.969 119.925 471.27 120.36 468.145 121.203L465.655 113.277C465.309 112.175 464.963 111.156 464.629 110.18L469.813 112.071C474.198 113.67 478.363 115.127 481.736 116.269ZM449.004 130.569L450.042 130.197C449.654 130.517 449.271 130.846 448.894 131.184L446.723 133.129L446.687 133.236C445.99 133.275 445.172 133.252 444.302 133.151C443.166 133.02 442.218 132.787 441.615 132.576L436.162 148.002C434.718 148.116 433.408 148.303 432.209 148.6C431.145 148.864 430.157 149.215 429.216 149.673C428.826 149.863 428.516 150.037 428.338 150.139L420.91 154.008L422.819 162.362C423.162 163.864 423.484 165.554 423.681 167.081C423.087 167.396 422.378 167.768 421.519 168.219C420.932 168.527 420.275 168.871 419.538 169.259C413.609 172.379 404.385 177.349 389.955 186.224C389.001 183.395 387.576 180.14 385.767 176.453L385.096 175.085L385.112 175.031L384.532 173.935L383.471 171.773L383.374 171.75L383.006 171.053C381.649 168.492 380.081 165.639 378.273 162.464C381.34 160.975 385.798 159.062 392.712 156.094C397.139 154.194 402.573 151.862 409.294 148.932L428.709 146.501L422.541 138.919L428.891 136.917L423.479 129.023C426.488 128.882 429.979 128.592 433.857 127.98L441.697 130.635L445.362 131.876L449.004 130.569ZM423.853 169.798C423.853 169.797 423.854 169.777 423.859 169.739C423.856 169.779 423.854 169.798 423.853 169.798Z" stroke="black" stroke-opacity="0.1" stroke-width="22.1953"/>
<g filter="url(#filter1_d_101_413)">
<path d="M428.028 83.872L431.186 84.0919L433.35 81.7813C435.87 79.0907 439.45 75.8423 442.268 73.4226L467.679 70.9263L450.951 87.236L442.253 95.7165C441.429 94.3481 440.67 92.9245 440.039 91.3115L438.946 88.5172L436.128 87.4851C434.836 87.0116 433.238 86.472 431.547 85.9006C431.043 85.7305 430.531 85.5575 430.016 85.3827C428.482 84.8614 426.855 84.301 425.181 83.6952C426.123 83.7465 427.074 83.8055 428.028 83.872ZM467.63 101.359C468.746 101.367 469.797 101.375 470.787 101.384L470.737 101.621L469.195 108.836C468.112 108.675 466.697 108.411 464.832 108.012L463.756 107.782L462.663 107.911C460.241 108.196 456.503 108.959 452.563 110.339C448.671 111.703 444.082 113.842 440.377 117.131L438.743 118.582L438.603 119.235C438.241 119.338 437.748 119.449 437.106 119.54C434.52 119.905 431.237 119.708 428.9 119.191L426.046 131.91C425.847 131.952 425.656 131.996 425.473 132.042C424.765 132.219 424.129 132.44 423.526 132.722C423.24 132.856 423.018 132.978 422.898 133.044C422.895 133.046 422.892 133.048 422.889 133.049L417.025 135.987L420.013 141.942C420.663 143.237 421.33 144.72 421.8 146.038C421.095 146.405 420.202 146.856 419.043 147.44C418.528 147.7 417.961 147.986 417.335 148.303C411.37 151.322 401.605 156.391 385.764 166.001C385.608 165.208 385.361 164.521 385.14 163.991C384.079 161.442 381.682 158.107 378.01 153.777L376.627 152.146L376.628 152.135L376.431 151.915L376.374 151.848L376.37 151.848L374.511 149.783C372.553 147.608 370.261 145.146 367.585 142.361C370.442 140.951 374.885 139.11 382.212 136.074C386.51 134.292 391.801 132.1 398.347 129.342L407.361 125.544L404.584 122.704L412.576 120.223L405.343 113.72C409.165 113.512 414.179 113.131 419.97 112.045L429.491 114.079L431.318 114.469L433.081 113.853L442.096 110.7L449.896 107.973L445.573 100.931C445.041 100.065 444.503 99.2396 443.974 98.4268C443.389 97.5298 442.815 96.6479 442.268 95.7421L454.092 98.4893C458.589 99.5341 462.849 100.478 466.285 101.212L466.95 101.354L467.63 101.359ZM422.338 148C422.338 147.999 422.336 147.983 422.334 147.954C422.338 147.985 422.339 148 422.338 148ZM423.682 144.965C423.7 144.951 423.71 144.943 423.711 144.943C423.711 144.943 423.702 144.951 423.682 144.965Z" stroke="black" stroke-opacity="0.1" stroke-width="13.3172" shape-rendering="crispEdges"/>
</g>
<g filter="url(#filter2_d_101_413)">
<rect x="72.7493" y="22.3759" width="240.035" height="25.9413" rx="12.9706" transform="rotate(30.396 72.7493 22.3759)" fill="#A54040"/>
<rect x="75.0618" y="31.2512" width="227.064" height="12.9706" rx="6.48532" transform="rotate(30.396 75.0618 31.2512)" stroke="#823F3F" stroke-opacity="0.2" stroke-width="12.9706"/>
<ellipse cx="290.278" cy="165.017" rx="53.6548" ry="38.9119" transform="rotate(30.396 290.278 165.017)" fill="#A54040"/>
<path d="M329.858 188.234C325.993 194.822 318.477 199.227 308.329 200.214C298.192 201.2 286.042 198.638 274.52 191.879C262.999 185.121 254.834 175.766 250.747 166.436C246.657 157.097 246.834 148.387 250.699 141.799C254.563 135.211 262.079 130.806 272.227 129.819C282.364 128.833 294.514 131.395 306.036 138.154C317.558 144.912 325.723 154.267 329.809 163.597C333.9 172.936 333.722 181.646 329.858 188.234Z" stroke="#823F3F" stroke-opacity="0.2" stroke-width="15.5367"/>
</g>
<g filter="url(#filter3_d_101_413)">
<path d="M150.316 157.586L438.515 160.442C470.384 160.758 495.964 186.849 495.648 218.719L494.499 334.617L175.229 331.454C160.52 331.308 148.714 319.266 148.859 304.557L150.316 157.586Z" fill="#BF7D2C"/>
</g>
<g filter="url(#filter4_d_101_413)">
<path d="M151.886 196.319L51.8978 195.201C34.2811 195.003 20.1598 180.563 20.3569 162.946L152.243 164.421L151.886 196.319Z" fill="#3D3D3D"/>
</g>
<g filter="url(#filter5_bd_101_413)">
<path d="M233.395 306.928L187.513 259.909V306.928H181.121V207.209H187.513V254.654L233.395 207.209H241.634L193.053 257.211L241.776 306.928H233.395ZM321.786 229.795V306.928H315.394V290.166C313.216 296.037 309.57 300.536 304.456 303.661C299.437 306.691 293.66 308.206 287.126 308.206C277.94 308.206 270.411 305.413 264.54 299.825C258.763 294.143 255.875 285.763 255.875 274.683V229.795H262.125V274.257C262.125 283.442 264.445 290.498 269.085 295.422C273.726 300.252 280.023 302.666 287.978 302.666C296.312 302.666 302.941 300.015 307.865 294.712C312.884 289.409 315.394 281.548 315.394 271.131V229.795H321.786ZM385.147 306.928L351.481 271.558V306.928H345.089V201.811H351.481V264.739L384.579 229.795H393.528L356.169 268.148L393.954 306.928H385.147ZM447.155 306.928L413.489 271.558V306.928H407.097V201.811H413.489V264.739L446.587 229.795H455.536L418.177 268.148L455.962 306.928H447.155ZM472.372 212.607C470.857 212.607 469.578 212.133 468.537 211.186C467.495 210.145 466.974 208.772 466.974 207.067C466.974 205.457 467.495 204.131 468.537 203.09C469.578 202.048 470.857 201.527 472.372 201.527C473.887 201.527 475.166 202.048 476.207 203.09C477.249 204.131 477.77 205.457 477.77 207.067C477.77 208.772 477.249 210.145 476.207 211.186C475.166 212.133 473.887 212.607 472.372 212.607ZM475.497 229.795V306.928H469.105V229.795H475.497Z" fill="black"/>
</g>
</g>
<defs>
<filter id="filter0_d_101_413" x="0.354828" y="27.1538" width="530.256" height="347.464" filterUnits="userSpaceOnUse" color-interpolation-filters="sRGB">
<feFlood flood-opacity="0" result="BackgroundImageFix"/>
<feColorMatrix in="SourceAlpha" type="matrix" values="0 0 0 0 0 0 0 0 0 0 0 0 0 0 0 0 0 0 127 0" result="hardAlpha"/>
<feOffset dy="20"/>
<feGaussianBlur stdDeviation="10"/>
<feComposite in2="hardAlpha" operator="out"/>
<feColorMatrix type="matrix" values="0 0 0 0 0 0 0 0 0 0 0 0 0 0 0 0 0 0 0.25 0"/>
<feBlend mode="normal" in2="BackgroundImageFix" result="effect1_dropShadow_101_413"/>
<feBlend mode="normal" in="SourceGraphic" in2="effect1_dropShadow_101_413" result="shape"/>
</filter>
<filter id="filter1_d_101_413" x="349.802" y="62.444" width="147.06" height="130.852" filterUnits="userSpaceOnUse" color-interpolation-filters="sRGB">
<feFlood flood-opacity="0" result="BackgroundImageFix"/>
<feColorMatrix in="SourceAlpha" type="matrix" values="0 0 0 0 0 0 0 0 0 0 0 0 0 0 0 0 0 0 127 0" result="hardAlpha"/>
<feOffset dy="8.87811"/>
<feGaussianBlur stdDeviation="4.43906"/>
<feComposite in2="hardAlpha" operator="out"/>
<feColorMatrix type="matrix" values="0 0 0 0 0 0 0 0 0 0 0 0 0 0 0 0 0 0 0.25 0"/>
<feBlend mode="normal" in2="BackgroundImageFix" result="effect1_dropShadow_101_413"/>
<feBlend mode="normal" in="SourceGraphic" in2="effect1_dropShadow_101_413" result="shape"/>
</filter>
<filter id="filter2_d_101_413" x="55.5234" y="27.1538" width="293.94" height="198.789" filterUnits="userSpaceOnUse" color-interpolation-filters="sRGB">
<feFlood flood-opacity="0" result="BackgroundImageFix"/>
<feColorMatrix in="SourceAlpha" type="matrix" values="0 0 0 0 0 0 0 0 0 0 0 0 0 0 0 0 0 0 127 0" result="hardAlpha"/>
<feOffset dy="8.87811"/>
<feGaussianBlur stdDeviation="4.43906"/>
<feComposite in2="hardAlpha" operator="out"/>
<feColorMatrix type="matrix" values="0 0 0 0 0 0 0 0 0 0 0 0 0 0 0 0 0 0 0.25 0"/>
<feBlend mode="normal" in2="BackgroundImageFix" result="effect1_dropShadow_101_413"/>
<feBlend mode="normal" in="SourceGraphic" in2="effect1_dropShadow_101_413" result="shape"/>
</filter>
<filter id="filter3_d_101_413" x="139.98" y="157.586" width="364.549" height="194.787" filterUnits="userSpaceOnUse" color-interpolation-filters="sRGB">
<feFlood flood-opacity="0" result="BackgroundImageFix"/>
<feColorMatrix in="SourceAlpha" type="matrix" values="0 0 0 0 0 0 0 0 0 0 0 0 0 0 0 0 0 0 127 0" result="hardAlpha"/>
<feOffset dy="8.87811"/>
<feGaussianBlur stdDeviation="4.43906"/>
<feComposite in2="hardAlpha" operator="out"/>
<feColorMatrix type="matrix" values="0 0 0 0 0 0 0 0 0 0 0 0 0 0 0 0 0 0 0.25 0"/>
<feBlend mode="normal" in2="BackgroundImageFix" result="effect1_dropShadow_101_413"/>
<feBlend mode="normal" in="SourceGraphic" in2="effect1_dropShadow_101_413" result="shape"/>
</filter>
<filter id="filter4_d_101_413" x="11.4767" y="162.946" width="149.644" height="51.1298" filterUnits="userSpaceOnUse" color-interpolation-filters="sRGB">
<feFlood flood-opacity="0" result="BackgroundImageFix"/>
<feColorMatrix in="SourceAlpha" type="matrix" values="0 0 0 0 0 0 0 0 0 0 0 0 0 0 0 0 0 0 127 0" result="hardAlpha"/>
<feOffset dy="8.87811"/>
<feGaussianBlur stdDeviation="4.43906"/>
<feComposite in2="hardAlpha" operator="out"/>
<feColorMatrix type="matrix" values="0 0 0 0 0 0 0 0 0 0 0 0 0 0 0 0 0 0 0.25 0"/>
<feBlend mode="normal" in2="BackgroundImageFix" result="effect1_dropShadow_101_413"/>
<feBlend mode="normal" in="SourceGraphic" in2="effect1_dropShadow_101_413" result="shape"/>
</filter>
<filter id="filter5_bd_101_413" x="172.243" y="192.649" width="314.405" height="133.314" filterUnits="userSpaceOnUse" color-interpolation-filters="sRGB">
<feFlood flood-opacity="0" result="BackgroundImageFix"/>
<feGaussianBlur in="BackgroundImage" stdDeviation="4.43906"/>
<feComposite in2="SourceAlpha" operator="in" result="effect1_backgroundBlur_101_413"/>
<feColorMatrix in="SourceAlpha" type="matrix" values="0 0 0 0 0 0 0 0 0 0 0 0 0 0 0 0 0 0 127 0" result="hardAlpha"/>
<feOffset dy="8.87811"/>
<feGaussianBlur stdDeviation="4.43906"/>
<feComposite in2="hardAlpha" operator="out"/>
<feColorMatrix type="matrix" values="0 0 0 0 0 0 0 0 0 0 0 0 0 0 0 0 0 0 0.25 0"/>
<feBlend mode="normal" in2="effect1_backgroundBlur_101_413" result="effect2_dropShadow_101_413"/>
<feBlend mode="normal" in="SourceGraphic" in2="effect2_dropShadow_101_413" result="shape"/>
</filter>
</defs>
</svg>
