<svg width="17" height="16" viewBox="0 0 17 16" fill="none" xmlns="http://www.w3.org/2000/svg">
<g clip-path="url(#clip0_52_486)">
<path d="M2.57141 1C2.30328 1 2.04613 1.10536 1.85654 1.29289C1.66694 1.48043 1.56042 1.73478 1.56042 2V3C1.56042 3.26522 1.66694 3.51957 1.85654 3.70711C2.04613 3.89464 2.30328 4 2.57141 4H3.07691V13C3.07691 13.5304 3.28994 14.0391 3.66913 14.4142C4.04833 14.7893 4.56262 15 5.09889 15H11.1648C11.7011 15 12.2154 14.7893 12.5946 14.4142C12.9738 14.0391 13.1868 13.5304 13.1868 13V4H13.6923C13.9604 4 14.2176 3.89464 14.4072 3.70711C14.5968 3.51957 14.7033 3.26522 14.7033 3V2C14.7033 1.73478 14.5968 1.48043 14.4072 1.29289C14.2176 1.10536 13.9604 1 13.6923 1H10.1538C10.1538 0.734784 10.0473 0.48043 9.85772 0.292893C9.66812 0.105357 9.41097 0 9.14284 0L7.12086 0C6.85273 0 6.59558 0.105357 6.40599 0.292893C6.21639 0.48043 6.10988 0.734784 6.10988 1H2.57141ZM5.60438 5C5.73845 5 5.86702 5.05268 5.96182 5.14645C6.05662 5.24021 6.10988 5.36739 6.10988 5.5V12.5C6.10988 12.6326 6.05662 12.7598 5.96182 12.8536C5.86702 12.9473 5.73845 13 5.60438 13C5.47032 13 5.34174 12.9473 5.24694 12.8536C5.15214 12.7598 5.09889 12.6326 5.09889 12.5V5.5C5.09889 5.36739 5.15214 5.24021 5.24694 5.14645C5.34174 5.05268 5.47032 5 5.60438 5ZM8.13185 5C8.26592 5 8.39449 5.05268 8.48929 5.14645C8.58409 5.24021 8.63735 5.36739 8.63735 5.5V12.5C8.63735 12.6326 8.58409 12.7598 8.48929 12.8536C8.39449 12.9473 8.26592 13 8.13185 13C7.99779 13 7.86921 12.9473 7.77442 12.8536C7.67962 12.7598 7.62636 12.6326 7.62636 12.5V5.5C7.62636 5.36739 7.67962 5.24021 7.77442 5.14645C7.86921 5.05268 7.99779 5 8.13185 5ZM11.1648 5.5V12.5C11.1648 12.6326 11.1116 12.7598 11.0168 12.8536C10.922 12.9473 10.7934 13 10.6593 13C10.5253 13 10.3967 12.9473 10.3019 12.8536C10.2071 12.7598 10.1538 12.6326 10.1538 12.5V5.5C10.1538 5.36739 10.2071 5.24021 10.3019 5.14645C10.3967 5.05268 10.5253 5 10.6593 5C10.7934 5 10.922 5.05268 11.0168 5.14645C11.1116 5.24021 11.1648 5.36739 11.1648 5.5Z" fill="#FC5555"/>
</g>
<defs>
<clipPath id="clip0_52_486">
<rect width="16.1758" height="16" fill="white" transform="translate(0.0439453)"/>
</clipPath>
</defs>
</svg>
